<svg width="207" height="40" viewBox="0 0 207 40" fill="none" xmlns="http://www.w3.org/2000/svg">
<g clip-path="url(#clip0_4019_57)">
<path d="M59.1923 16.7458H61.6842C61.8789 16.7458 61.9871 16.6266 62.0088 16.3882C62.2035 14.9181 62.0629 13.6394 61.5868 12.5486C61.1144 11.4577 60.3571 10.6161 59.3221 10.0201C58.2872 9.42773 57.0358 9.12793 55.5717 9.12793C53.4152 9.12793 51.7671 9.73114 50.624 10.9412C49.4808 12.1512 48.911 13.932 48.911 16.287V23.7062C48.911 26.1046 49.4808 27.8962 50.624 29.0846C51.7671 30.273 53.4152 30.8653 55.5717 30.8653C57.7282 30.8653 59.4411 30.2188 60.5843 28.922C61.7275 27.6253 62.2107 25.8554 62.0412 23.6087C61.9979 23.3703 61.8789 23.2511 61.6842 23.2511H59.2248C59.0084 23.2511 58.9218 23.3595 58.9651 23.5762C59.0733 24.9379 58.8461 26.0216 58.2872 26.8307C57.7246 27.6398 56.8302 28.0443 55.6041 28.0443C54.4393 28.0443 53.5486 27.6831 52.9355 26.9607C52.3225 26.2383 52.0123 25.1077 52.0123 23.5762V16.4171C52.0123 14.8856 52.3189 13.755 52.9355 13.0326C53.5486 12.3102 54.4393 11.949 55.6041 11.949C56.7689 11.949 57.6633 12.3318 58.2222 13.0976C58.7812 13.8633 59.0084 14.9722 58.9002 16.4171C58.9002 16.6338 58.9976 16.7422 59.1923 16.7422V16.7458Z" fill="white"/>
<path d="M75.139 9.3918H65.4707C65.276 9.3918 65.1786 9.50016 65.1786 9.71688V30.2876C65.1786 30.5043 65.2652 30.6127 65.4383 30.6127H67.9915C68.1646 30.6127 68.2511 30.5043 68.2511 30.2876V21.5428H74.2014C74.3961 21.5428 74.4935 21.4236 74.4935 21.1852V19.1444C74.4935 18.9276 74.3961 18.8193 74.2014 18.8193H68.2511V12.2092H75.139C75.3337 12.2092 75.4311 12.09 75.4311 11.8516V9.71327C75.4311 9.49655 75.3337 9.38818 75.139 9.38818V9.3918Z" fill="white"/>
<path d="M83.9345 9.13135C81.7564 9.13135 80.1011 9.72734 78.9688 10.9121C77.8364 12.1005 77.2702 13.8379 77.2702 16.1279V23.9011C77.2702 26.1695 77.8364 27.896 78.9688 29.0844C80.1011 30.2728 81.7564 30.8651 83.9345 30.8651C86.1127 30.8651 87.7679 30.2728 88.9003 29.0844C90.0326 27.896 90.5988 26.1695 90.5988 23.9011V16.1279C90.5988 13.8379 90.0326 12.1005 88.9003 10.9121C87.7679 9.72373 86.1127 9.13135 83.9345 9.13135ZM87.5263 23.7747C87.5263 25.2231 87.2234 26.2959 86.6211 26.9966C86.0189 27.6974 85.1209 28.0477 83.9381 28.0477C82.7553 28.0477 81.8898 27.6974 81.2875 26.9966C80.6853 26.2959 80.3824 25.2195 80.3824 23.7747V16.2579C80.3824 14.7915 80.6853 13.7042 81.2875 13.0035C81.8898 12.3027 82.7769 11.9524 83.9381 11.9524C85.0993 11.9524 86.0189 12.3027 86.6211 13.0035C87.2234 13.7042 87.5263 14.7915 87.5263 16.2579V23.7747Z" fill="white"/>
<path d="M105.637 9.3916H102.305C102.11 9.3916 101.991 9.47829 101.948 9.65167L96.6103 30.2549C96.5454 30.4933 96.6211 30.6125 96.8375 30.6125H99.4881C99.6828 30.6125 99.8018 30.5258 99.8451 30.3524L100.902 25.8157H107.003L108.06 30.3524C108.147 30.5258 108.255 30.6125 108.385 30.6125H111.133C111.349 30.6125 111.435 30.4933 111.392 30.2549L105.99 9.65167C105.925 9.47829 105.806 9.3916 105.633 9.3916H105.637ZM101.522 23.1572L103.015 16.7422C103.166 16.0089 103.318 15.2901 103.469 14.5894C103.621 13.8886 103.761 13.1698 103.891 12.4366H103.956C104.108 13.1698 104.259 13.8922 104.411 14.6074C104.562 15.319 104.724 16.0342 104.897 16.7458L106.39 23.1608H101.526L101.522 23.1572Z" fill="white"/>
<path d="M115.723 9.3918H113.235C113.04 9.3918 112.943 9.50016 112.943 9.71688V30.2876C112.943 30.5043 113.04 30.6127 113.235 30.6127H115.723C115.918 30.6127 116.015 30.5043 116.015 30.2876V9.71327C116.015 9.49655 115.918 9.38818 115.723 9.38818V9.3918Z" fill="white"/>
<path d="M137.101 9.3918H134.706C134.512 9.3918 134.414 9.50016 134.414 9.71688V20.5025C134.414 21.066 134.418 21.7162 134.432 22.4639C134.443 23.2079 134.465 23.9484 134.497 24.6817C134.53 25.4149 134.566 26.0759 134.609 26.6575H134.512C134.382 26.1193 134.216 25.5305 134.01 24.8912C133.805 24.2554 133.588 23.5908 133.365 22.8973C133.138 22.2074 132.907 21.5572 132.669 20.954L128.561 9.61574C128.518 9.46404 128.399 9.38818 128.204 9.38818H124.551C124.357 9.38818 124.259 9.49655 124.259 9.71327V30.284C124.259 30.5007 124.357 30.6091 124.551 30.6091H126.946C127.141 30.6091 127.238 30.5007 127.238 30.284V19.9174C127.238 19.2491 127.227 18.5339 127.205 17.779C127.184 17.0241 127.166 16.2619 127.155 15.4962C127.144 14.7304 127.126 14.0333 127.108 13.4048H127.173C127.454 14.2898 127.75 15.247 128.06 16.2728C128.374 17.2986 128.724 18.3317 129.113 19.3647L133.123 30.3779C133.21 30.5296 133.329 30.6055 133.48 30.6055H137.101C137.296 30.6055 137.393 30.4971 137.393 30.2804V9.71327C137.393 9.49655 137.296 9.38818 137.101 9.38818V9.3918Z" fill="white"/>
<path d="M192.059 9.3918H189.604C189.409 9.3918 189.312 9.50016 189.312 9.71688V23.5475C189.312 25.1007 189.037 26.2421 188.486 26.9645C187.934 27.6869 187.079 28.0481 185.914 28.0481C184.75 28.0481 183.92 27.6797 183.361 26.9464C182.802 26.2132 182.521 25.079 182.521 23.5439V9.71327C182.521 9.49655 182.424 9.38818 182.229 9.38818H179.737C179.521 9.38818 179.412 9.49655 179.412 9.71327V23.5764C179.412 26.0181 179.957 27.8422 181.046 29.0523C182.135 30.2623 183.758 30.8655 185.914 30.8655C188.071 30.8655 189.661 30.2515 190.75 29.0198C191.839 27.788 192.384 25.9748 192.384 23.5764V9.71327C192.384 9.49655 192.276 9.38818 192.059 9.38818V9.3918Z" fill="white"/>
<path d="M206.679 22.8825C206.463 22.2034 206.113 21.5966 205.63 21.0692C205.143 20.5419 204.49 20.0398 203.671 19.563L200.307 17.5547C199.553 17.1212 199.012 16.6625 198.691 16.1785C198.367 15.6909 198.215 15.0732 198.237 14.3147C198.237 13.4947 198.464 12.8843 198.915 12.4833C199.369 12.0824 200.015 11.8837 200.855 11.8837C201.803 11.8837 202.521 12.1691 203.008 12.7434C203.495 13.3141 203.693 14.1088 203.607 15.1238C203.563 15.4488 203.65 15.6114 203.866 15.6114H206.326C206.499 15.6114 206.607 15.4488 206.65 15.1238C206.823 13.2238 206.398 11.7501 205.374 10.7026C204.349 9.6551 202.824 9.13135 200.797 9.13135C198.965 9.13135 197.566 9.57924 196.61 10.475C195.651 11.3708 195.161 12.6712 195.139 14.3797C195.118 15.6547 195.37 16.7275 195.9 17.6016C196.427 18.4758 197.274 19.2704 198.439 19.982L201.897 22.0228C202.391 22.3045 202.788 22.6043 203.076 22.9294C203.369 23.2545 203.578 23.6085 203.708 23.9986C203.837 24.3887 203.902 24.8294 203.902 25.3278C203.902 26.2995 203.664 27.0111 203.192 27.4662C202.716 27.9213 201.973 28.1453 200.96 28.1453C199.946 28.1453 199.153 27.8599 198.648 27.2856C198.143 26.7149 197.93 25.8552 198.017 24.7102C198.017 24.4068 197.909 24.2551 197.692 24.2551H195.298C195.103 24.2551 194.995 24.4068 194.973 24.7102C194.8 26.5668 195.182 28.0586 196.12 29.1819C197.058 30.3053 198.626 30.8651 200.826 30.8651C203.026 30.8651 204.523 30.3775 205.514 29.4059C206.506 28.4342 207.004 27.0725 207.004 25.3242C207.004 24.3743 206.895 23.5579 206.679 22.8789V22.8825Z" fill="white"/>
<path d="M153.859 9.3918L160.574 18.4942H143.96V12.2092H150.848C151.042 12.2092 151.14 12.09 151.14 11.8516V9.71327C151.14 9.49655 151.042 9.38818 150.848 9.38818H141.179C140.985 9.38818 140.887 9.49655 140.887 9.71327V30.284C140.887 30.5007 140.996 30.6091 141.212 30.6091H150.848C151.042 30.6091 151.14 30.5007 151.14 30.284V28.1456C151.14 27.9072 151.042 27.788 150.848 27.788H143.96V21.178H160.812L153.859 30.6055H157.451L165.276 19.9968L157.451 9.38818H153.859V9.3918Z" fill="white"/>
<path d="M173.102 9.3916L165.276 20.0002L173.102 30.6089H176.693L168.872 20.0002L176.693 9.3916H173.102Z" fill="white"/>
<path d="M36.4624 5.79395H3.7144V36.4748H36.4624V5.79395Z" fill="white"/>
<path d="M0 0V40H39.9388V0H0ZM33.2204 21.2281H23.8082L29.2824 28.6509H26.3506L19.9676 20L13.5882 28.6509H10.6563L16.3253 20.9644H6.71476V18.7719H16.127L10.6527 11.3491H13.5846L19.964 19.9964L26.347 11.3491H29.2788L23.6098 19.0356H33.2204V21.2281Z" fill="url(#paint0_linear_4019_57)"/>
</g>
<defs>
<linearGradient id="paint0_linear_4019_57" x1="0" y1="20" x2="39.9388" y2="20" gradientUnits="userSpaceOnUse">
<stop stop-color="#FC69D2"/>
<stop offset="1" stop-color="#4D5DFF"/>
</linearGradient>
<clipPath id="clip0_4019_57">
<rect width="207" height="40" fill="white"/>
</clipPath>
</defs>
</svg>
