<svg width="40" height="40" viewBox="0 0 40 40" fill="none" xmlns="http://www.w3.org/2000/svg">
<path d="M8.9502 40H0.650391V13.2998H8.9502V40ZM30.0498 12.6504C38.4498 12.6504 40 18.1506 40 25.3506V39.9502H31.7002V26.9502C31.7002 23.8503 31.6499 19.9007 27.4004 19.9004C23.1005 19.9004 22.4502 23.2501 22.4502 26.75V40H14.1504V13.2998H22.0996V16.9502H22.2002C23.3002 14.8502 25.9999 12.6504 30.0498 12.6504ZM4.7998 0C7.44974 0 9.5995 2.14989 9.59961 4.7998C9.59961 7.4498 7.44981 9.65039 4.7998 9.65039C2.14989 9.65028 0 7.44974 0 4.7998C0.000105739 2.14996 2.14996 0.000106048 4.7998 0Z" fill="url(#paint0_linear_4083_318)"/>
<defs>
<linearGradient id="paint0_linear_4083_318" x1="0" y1="4.825" x2="40" y2="4.825" gradientUnits="userSpaceOnUse">
<stop stop-color="#FC69D2"/>
<stop offset="1" stop-color="#4D5DFF"/>
</linearGradient>
</defs>
</svg>
