<svg width="40" height="40" viewBox="0 0 40 40" fill="none" xmlns="http://www.w3.org/2000/svg">
<path d="M6.66659 10.0002H3.33325V33.3335C3.33325 35.1668 4.83325 36.6668 6.66659 36.6668H29.9999V33.3335H6.66659V10.0002ZM33.3333 3.3335H13.3333C11.4999 3.3335 9.99992 4.8335 9.99992 6.66683V26.6668C9.99992 28.5002 11.4999 30.0002 13.3333 30.0002H33.3333C35.1666 30.0002 36.6666 28.5002 36.6666 26.6668V6.66683C36.6666 4.8335 35.1666 3.3335 33.3333 3.3335ZM33.3333 26.6668H13.3333V6.66683H33.3333V26.6668ZM19.9999 9.16683V24.1668L29.9999 16.6668L19.9999 9.16683Z" fill="url(#paint0_linear_4083_330)"/>
<defs>
<linearGradient id="paint0_linear_4083_330" x1="3.33325" y1="20.0002" x2="36.6666" y2="20.0002" gradientUnits="userSpaceOnUse">
<stop stop-color="#FC69D2"/>
<stop offset="1" stop-color="#4D5DFF"/>
</linearGradient>
</defs>
</svg>
