<svg width="56" height="56" viewBox="0 0 56 56" fill="none" xmlns="http://www.w3.org/2000/svg">
<path d="M20.9995 7.35559C21.9411 7.35559 22.873 7.55476 23.7319 7.94055C24.5907 8.3263 25.3575 8.8902 25.9829 9.59387L27.9995 11.8634L30.0161 9.59583C30.6415 8.89205 31.4092 8.32829 32.2681 7.9425C33.1268 7.55681 34.0581 7.35761 34.9995 7.35754C35.9409 7.35754 36.8722 7.55691 37.731 7.9425C38.5897 8.32821 39.3575 8.89219 39.9829 9.59583L52.4058 23.5724L52.603 23.8058C53.5621 24.9902 54.0883 26.4709 54.0884 28.0011C54.0883 29.6333 53.4899 31.2087 52.4058 32.4288V32.4298L39.9829 46.4064L39.9819 46.4054C39.3565 47.1091 38.5898 47.673 37.731 48.0587C36.8721 48.4444 35.941 48.6437 34.9995 48.6437C34.0581 48.6436 33.1269 48.4444 32.2681 48.0587C31.5167 47.7212 30.8348 47.2477 30.2573 46.6632L30.0161 46.4054L28.0005 44.1359L25.9829 46.4064C25.3575 47.11 24.5907 47.674 23.7319 48.0597C22.873 48.4455 21.9411 48.6447 20.9995 48.6447C20.0581 48.6446 19.1269 48.4454 18.2681 48.0597C17.4093 47.674 16.6425 47.11 16.0171 46.4064L3.59424 32.4298C2.50913 31.2094 1.90969 29.6332 1.90967 28.0001C1.90967 26.3671 2.50916 24.7908 3.59424 23.5704L16.0171 9.59387C16.6425 8.8902 17.4093 8.3263 18.2681 7.94055C19.1269 7.55483 20.0581 7.35566 20.9995 7.35559ZM20.9995 11.3556C20.6231 11.3557 20.2511 11.4358 19.9077 11.59C19.5641 11.7443 19.2565 11.9696 19.0063 12.2511L6.5835 26.2277C6.1494 26.7158 5.90967 27.3468 5.90967 28.0001C5.90969 28.6532 6.14957 29.2835 6.5835 29.7716V29.7726L19.0063 43.7491L19.2046 43.9493C19.4126 44.1388 19.65 44.2945 19.9077 44.4103C20.2511 44.5645 20.6231 44.6446 20.9995 44.6447C21.3761 44.6447 21.7488 44.5645 22.0923 44.4103C22.4359 44.256 22.7435 44.0307 22.9937 43.7491L26.4741 39.8322C26.5011 39.8003 26.5288 39.7688 26.5581 39.7384L35.4165 29.7726V29.7716C35.8504 29.2835 36.0903 28.6532 36.0903 28.0001C36.0903 27.3468 35.8506 26.7158 35.4165 26.2277L26.5366 16.2374C26.5251 16.2251 26.5146 16.2119 26.5034 16.1993L22.9937 12.2511C22.7435 11.9696 22.4359 11.7443 22.0923 11.59C21.7487 11.4357 21.3761 11.3556 20.9995 11.3556ZM34.9995 11.3575C34.623 11.3576 34.2502 11.4377 33.9067 11.5919C33.6493 11.7076 33.4124 11.8636 33.2046 12.0529L33.0063 12.2531L30.6753 14.8732L38.4058 23.5704L38.603 23.8029C39.5632 24.9877 40.0903 26.4689 40.0903 28.0001C40.0903 29.5313 39.5633 31.0126 38.603 32.1974L38.4058 32.4298L30.6763 41.1251L33.0063 43.7491L33.2046 43.9493C33.4123 44.1385 33.6494 44.2946 33.9067 44.4103C34.2502 44.5645 34.623 44.6436 34.9995 44.6437C35.3761 44.6437 35.7488 44.5645 36.0923 44.4103C36.4357 44.256 36.7426 44.0305 36.9927 43.7491L49.4155 29.7716C49.849 29.2836 50.0883 28.6538 50.0884 28.0011C50.0883 27.4299 49.9052 26.8755 49.5688 26.4191L49.4155 26.2296L36.9927 12.2531C36.7426 11.9718 36.4356 11.7462 36.0923 11.5919C35.7489 11.4378 35.376 11.3575 34.9995 11.3575Z" fill="url(#paint0_linear_4007_453)"/>
<defs>
<linearGradient id="paint0_linear_4007_453" x1="25.9999" y1="28.001" x2="54.0889" y2="28.001" gradientUnits="userSpaceOnUse">
<stop stop-color="#FC69D2"/>
<stop offset="1" stop-color="#4D5DFF"/>
</linearGradient>
</defs>
</svg>
