<svg width="56" height="56" viewBox="0 0 56 56" fill="none" xmlns="http://www.w3.org/2000/svg">
<path d="M18.6667 28C23.9867 28 28 23.9866 28 18.6666C28 13.3466 23.9867 9.3333 18.6667 9.3333C13.3467 9.3333 9.33332 13.3466 9.33332 18.6666C9.33332 23.9866 13.3467 28 18.6667 28ZM18.6667 14C21.4153 14 23.3333 15.918 23.3333 18.6666C23.3333 21.4153 21.4153 23.3333 18.6667 23.3333C15.918 23.3333 14 21.4153 14 18.6666C14 15.918 15.918 14 18.6667 14ZM21 30.3333H16.3333C9.90032 30.3333 4.66666 35.567 4.66666 42V44.3333H9.33332V42C9.33332 38.1406 12.474 35 16.3333 35H21C24.8593 35 28 38.1406 28 42V44.3333H32.6667V42C32.6667 35.567 27.433 30.3333 21 30.3333ZM42.8493 6.15063L39.55 9.44997C42.6323 12.537 44.3333 16.639 44.3333 21C44.3333 25.361 42.6323 29.463 39.55 32.55L42.8493 35.8493C46.816 31.8803 49 26.607 49 21C49 15.393 46.816 10.1196 42.8493 6.15063Z" fill="url(#paint0_linear_4007_446)"/>
<path d="M36.2483 12.7494L32.949 16.0534C34.272 17.3717 35 19.1287 35 21.0001C35 22.8714 34.272 24.6284 32.949 25.9467L36.2483 29.2507C38.451 27.0481 39.6667 24.1197 39.6667 21.0001C39.6667 17.8804 38.451 14.9521 36.2483 12.7494Z" fill="url(#paint1_linear_4007_446)"/>
<defs>
<linearGradient id="paint0_linear_4007_446" x1="4.66666" y1="25.242" x2="49" y2="25.242" gradientUnits="userSpaceOnUse">
<stop stop-color="#FC69D2"/>
<stop offset="1" stop-color="#4D5DFF"/>
</linearGradient>
<linearGradient id="paint1_linear_4007_446" x1="32.949" y1="21.0001" x2="39.6667" y2="21.0001" gradientUnits="userSpaceOnUse">
<stop stop-color="#FC69D2"/>
<stop offset="1" stop-color="#4D5DFF"/>
</linearGradient>
</defs>
</svg>
