<svg width="56" height="56" viewBox="0 0 56 56" fill="none" xmlns="http://www.w3.org/2000/svg">
<path d="M45.7719 35.5443C46.7598 35.0503 47.9614 35.4509 48.4555 36.4388C48.9494 37.4268 48.5489 38.6284 47.5609 39.1224L28.8949 48.4554C28.3319 48.7369 27.6689 48.7369 27.1058 48.4554L8.43886 39.1224C7.4509 38.6284 7.05035 37.4268 7.54433 36.4388C8.0383 35.4508 9.23996 35.0503 10.2279 35.5443L27.9994 44.43L45.7719 35.5443ZM45.7719 26.2113C46.7598 25.7173 47.9615 26.1178 48.4555 27.1058C48.9493 28.0937 48.5488 29.2944 47.5609 29.7884L28.8949 39.1224C28.3319 39.4039 27.6688 39.4038 27.1058 39.1224L8.43886 29.7884C7.45118 29.2944 7.05059 28.0936 7.54433 27.1058C8.0383 26.1178 9.23996 25.7173 10.2279 26.2113L27.9994 35.097L45.7719 26.2113ZM27.3207 7.45247C27.8326 7.26754 28.4021 7.29786 28.8949 7.54427L47.5609 16.8782C48.2384 17.217 48.6663 17.9089 48.6664 18.6663C48.6664 19.4239 48.2385 20.1166 47.5609 20.4554L28.8949 29.7884C28.3319 30.0699 27.6689 30.0699 27.1058 29.7884L8.43886 20.4554C7.76136 20.1166 7.33339 19.4238 7.33339 18.6663C7.33351 17.909 7.76154 17.217 8.43886 16.8782L27.1058 7.54427L27.3207 7.45247ZM13.8051 18.6663L27.9994 25.764L42.1947 18.6663L27.9994 11.5687L13.8051 18.6663Z" fill="url(#paint0_linear_4007_461)"/>
<defs>
<linearGradient id="paint0_linear_4007_461" x1="7.33276" y1="27.9999" x2="48.667" y2="27.9999" gradientUnits="userSpaceOnUse">
<stop stop-color="#FC69D2"/>
<stop offset="1" stop-color="#4D5DFF"/>
</linearGradient>
</defs>
</svg>
