<svg width="40" height="40" viewBox="0 0 40 40" fill="none" xmlns="http://www.w3.org/2000/svg">
<path d="M16.1334 21.9833L20.0001 19.05L23.8501 21.9833L22.3834 17.2333L26.2501 14.1667H21.5167L20.0001 9.48333L18.4834 14.1667H13.7501L17.6001 17.2333L16.1334 21.9833ZM33.3334 15.8333C33.3334 8.46667 27.3667 2.5 20.0001 2.5C12.6334 2.5 6.66675 8.46667 6.66675 15.8333C6.66675 19.2167 7.93341 22.2833 10.0001 24.6333V37.5L20.0001 34.1667L30.0001 37.5V24.6333C32.0667 22.2833 33.3334 19.2167 33.3334 15.8333ZM20.0001 5.83333C25.5167 5.83333 30.0001 10.3167 30.0001 15.8333C30.0001 21.35 25.5167 25.8333 20.0001 25.8333C14.4834 25.8333 10.0001 21.35 10.0001 15.8333C10.0001 10.3167 14.4834 5.83333 20.0001 5.83333ZM20.0001 30.8333L13.3334 32.5333V27.3667C15.3001 28.5 17.5667 29.1667 20.0001 29.1667C22.4334 29.1667 24.7001 28.5 26.6667 27.3667V32.5333L20.0001 30.8333Z" fill="url(#paint0_linear_4083_326)"/>
<defs>
<linearGradient id="paint0_linear_4083_326" x1="6.66675" y1="20" x2="33.3334" y2="20" gradientUnits="userSpaceOnUse">
<stop stop-color="#FC69D2"/>
<stop offset="1" stop-color="#4D5DFF"/>
</linearGradient>
</defs>
</svg>
